<?xml version="1.0"?>
<svg xmlns="http://www.w3.org/2000/svg" viewBox="0 0 50 50">
    <path style="text-indent:0;text-align:start;line-height:normal;text-transform:none;block-progression:tb;-inkscape-font-specification:Sans" d="M 2 9 C 1.719 9 1.439 9.1045 1.25 9.3125 C 1.061 9.5205 0.973 9.81275 1 10.09375 C 2.501 26.14975 7.10625 33.867 9.65625 37 L 31.375 37 C 32.117543 36.096736 33.011375 34.784668 33.96875 33.03125 A 1.0001 1.0001 0 0 0 35.9375 33.375 C 36.371027 32.312305 37.227248 31.584091 38.4375 30.9375 C 39.647752 30.290909 41.169015 29.776141 42.6875 29.1875 C 44.205985 28.598859 45.75452 27.924374 46.96875 26.8125 C 48.18298 25.700626 49 24.093213 49 22 C 49 18.698375 46.301625 16 43 16 C 41.483923 16 40.090071 16.564917 39.03125 17.5 C 39.429545 15.244917 39.759396 12.806798 40 10.09375 C 40.024 9.81475 39.94 9.5195 39.75 9.3125 C 39.56 9.1055 39.28 9 39 9 L 2 9 z M 43 18 C 45.220375 18 47 19.779625 47 22 C 47 23.607287 46.471083 24.540374 45.59375 25.34375 C 44.716417 26.147126 43.422015 26.749141 41.96875 27.3125 C 40.515485 27.875859 38.930311 28.392091 37.5 29.15625 C 36.491631 29.694982 35.548917 30.379411 34.84375 31.3125 C 35.875681 29.138831 36.916636 26.399894 37.8125 23 A 1.0001 1.0001 0 0 0 39 22 C 39 19.779625 40.779625 18 43 18 z M 9.71875 39 C 9.10175 39.542 8.5065 40.3895 8.0625 41.6875 C 7.9585 41.9925 7.9995 42.33175 8.1875 42.59375 C 8.3755 42.85575 8.677 43 9 43 L 32 43 C 32.32 43 32.6235 42.85275 32.8125 42.59375 C 33.0005 42.33375 33.0355 41.9915 32.9375 41.6875 C 32.5115 40.3805 31.90225 39.544 31.28125 39 L 9.71875 39 z" overflow="visible" font-family="Sans"/>
</svg>
