<?xml version="1.0" encoding="utf-8"?>
<!-- Svg Vector Icons : http://www.onlinewebfonts.com/icon -->
<!DOCTYPE svg PUBLIC "-//W3C//DTD SVG 1.1//EN" "http://www.w3.org/Graphics/SVG/1.1/DTD/svg11.dtd">
<svg version="1.1" xmlns="http://www.w3.org/2000/svg" xmlns:xlink="http://www.w3.org/1999/xlink" x="0px" y="0px" viewBox="0 0 1000 1000" enable-background="new 0 0 1000 1000" xml:space="preserve">
<metadata> Svg Vector Icons : http://www.onlinewebfonts.com/icon </metadata>
<g><g transform="matrix(1 0 0 -1 0 1920)"><path d="M167.2,1714v39.2c0,12.8,3.3,22.5,9.8,29.2c6.5,6.7,19.6,10,39.2,10h225.4v39.2c-11.8,0-21.9,0.5-30.4,1.6s-16.5,2.9-23.9,5.7c-7.4,2.7-13.1,6.8-16.9,12.2c-3.8,5.4-5.7,12-5.7,19.8s1.9,14.4,5.7,19.8c3.8,5.4,9.4,9.4,16.9,12.2c7.4,2.7,15.4,4.6,23.9,5.7c8.5,1,18.6,1.6,30.4,1.6h39.2c12.3,0,22.5-0.4,30.8-1.2c8.2-0.8,16.3-2.5,24.1-5.1c7.8-2.6,13.7-6.7,17.6-12.2c3.9-5.5,5.9-12.4,5.9-20.8s-2-15.3-5.9-20.8c-3.9-5.5-9.8-9.5-17.6-12.2s-15.9-4.3-24.1-5.1s-18.5-1.2-30.8-1.2v-39.2h225.4c19.6,0,32.7-3.3,39.2-10c6.5-6.7,9.8-16.4,9.8-29.2V1714H167.2z M284.8,930c-32.4,0-60.1,11.5-83.1,34.5c-23,23-34.5,50.7-34.5,83.1v509.6L49.6,1674.8h705.6v-39.2h89.4c17.8,0,33.1-1.7,46.1-5.1c12.9-3.4,23.2-7.8,30.8-13.3c7.6-5.5,13.6-12.7,18-21.8c4.4-9,7.4-18.2,8.8-27.4c1.4-9.3,2.2-20.2,2.2-32.7c0-27.4-3.6-55.3-10.8-83.5c-7.2-28.2-16.5-54.3-28-78.2c-11.5-23.9-24.2-47.4-38-70.6c-13.9-23.1-27.7-44.6-41.6-64.5c-13.9-19.9-26.5-38.2-38-55.1c-11.5-16.9-20.8-32.5-28-47c-7.2-14.5-10.8-26.6-10.8-36.3v-52.5c0-32.4-11.5-60.1-34.5-83.1c-23-23-50.7-34.5-83.1-34.5H284.8z M754.4,1271.8c9.7,15.9,16.9,27.8,21.6,35.7c4.7,7.8,11.2,18.9,19.4,33.1c8.2,14.2,14.5,25.2,18.8,32.7c4.3,7.6,9.7,17.4,16.3,29.4s11.5,21.6,14.9,28.8s7.2,15.5,11.4,24.9c4.2,9.4,7.3,17.3,9.2,23.7c2,6.4,3.7,13,5.1,19.8c1.4,6.8,2.2,12.8,2.2,18c0,26.1-16.5,39.2-49.4,39.2h-68.6L754.4,1271.8z"/></g></g>
</svg>