<svg id="pourover" xmlns="http://www.w3.org/2000/svg" viewBox="0 0 428.39 604.68">
  <defs>
    <style>
      .cls-1 {
        fill: #d3d2d1;
      }

      .cls-1, .cls-2, .cls-3, .cls-4, .cls-6 {
        stroke: #000;
        stroke-miterlimit: 10;
      }

      .cls-1, .cls-3, .cls-6 {
        stroke-width: 10px;
      }

      .cls-2, .cls-3, .cls-4 {
        fill: none;
      }

      .cls-2 {
        stroke-width: 8px;
      }

      .cls-4 {
        stroke-width: 5px;
      }

      .cls-5 {
        fill: #5b3502;
      }

      .cls-6 {
        fill: #020100;
      }

      .cls-7 {
        fill: #fff;
      }

      .cls-8 {
        fill: #fff3dd;
      }
    </style>
  </defs>
  <g id="coffeepot">
    <path class="cls-1" d="M323.07,613.8c0,72-266.52,72-266.52,0,0-28.1.54-45.57,57.69-116.12,8.62-10.64.68-36.55,9-55,7.36-16.34,128.05-17.17,135.08-1,8.1,18.66,1.43,39.91,9.71,50.73C323.08,564.36,323.07,584.12,323.07,613.8Z" transform="translate(-51.55 -68.1)"/>
    <line class="cls-2" x1="43.3" y1="366.39" x2="231.28" y2="366.39"/>
    <path class="cls-3" d="M268,492.43,323.07,476s22.41-4.9,22.41,36.14S323.07,591,323.07,591" transform="translate(-51.55 -68.1)"/>
    <line class="cls-4" x1="69.55" y1="394.51" x2="211.26" y2="394.51"/>
    <path class="cls-5" d="M306.33,585.48c0,38.78-52.61,70.21-117.49,70.21S71.35,624.26,71.35,585.48,306.33,546.71,306.33,585.48Z" transform="translate(-51.55 -68.1)"/>
    <polygon class="cls-6" points="82.03 358.54 55.5 245.61 219.07 245.61 192.55 358.54 82.03 358.54"/>
  </g>
  <g id="water">
    <g>
      <path class="cls-7" d="M237.28,118.86a51.2,51.2,0,0,1-4.82,4.27c-10.2,6.74-8.42,13.58-.51,20.83a155.78,155.78,0,0,1,12.68,12.76q39.56,45.6,78.76,91.49a15.19,15.19,0,0,1,3.3,10.6c-2.07,14.75.9,19.09,15.61,18.85,20.86-.35,41.71-1.21,62.56-2,14.36-.56,28.75-1,43-2.52,2.87-.31,7.79-5.92,7.4-8.41-4-25.63,9.7-46.84,16.78-69.59,7.29-23.45,10.37-47,5.59-71.24-6-30.36-26.26-48.05-54.67-54.14-29.45-6.3-54.45,6-71.64,30.14-7.54,10.56-10.28,24.53-15.53,37.78C324.27,139.3,322,142.81,323.24,156c1.36,14.19,1.82,28.46,2.76,44-3.76-2-6.33-2.77-8.06-4.41C291.25,170.32,264.66,144.94,237.28,118.86Z" transform="translate(-51.55 -68.1)"/>
      <path d="M237.28,118.86c27.38,26.08,54,51.46,80.66,76.72,1.73,1.64,4.3,2.4,8.06,4.41-.94-15.57-1.4-29.84-2.76-44-1.27-13.15,1-16.66,12.57-18.31,5.25-13.25,8-27.22,15.53-37.78C368.53,75.78,393.53,63.43,423,69.73c28.41,6.09,48.69,23.78,54.67,54.14,4.78,24.27,1.7,47.79-5.59,71.24-7.08,22.75-20.76,44-16.78,69.59.39,2.49-4.53,8.1-7.4,8.41-14.27,1.56-28.66,2-43,2.52-20.85.82-41.7,1.68-62.56,2-14.71.24-17.68-4.1-15.61-18.85a15.19,15.19,0,0,0-3.3-10.6q-39.08-46-78.76-91.49A155.78,155.78,0,0,0,232,144c-7.91-7.25-9.69-14.09.51-20.83A51.2,51.2,0,0,0,237.28,118.86ZM453,192.52c7.13-20.35,12.66-40.83,7.84-62.68-6.91-31.33-24.13-45.51-56.14-43.7-22.78,1.3-48.56,18.41-47.1,48.09,24.23,0,48.46,1.08,72.53-.36,17.57-1.06,22.81,2,22.86,20C453.07,166.74,453,179.63,453,192.52Z" transform="translate(-51.55 -68.1)"/>
      <path class="cls-8" d="M453,192.52c0-12.89,0-25.78,0-38.67,0-18-5.29-21-22.86-20-24.07,1.44-48.3.36-72.53.36-1.46-29.68,24.32-46.79,47.1-48.09,32-1.81,49.23,12.37,56.14,43.7C465.7,151.69,460.17,172.17,453,192.52Z" transform="translate(-51.55 -68.1)"/>
    </g>
  </g>
  <path id="coffeedrop" class="cls-5" d="M196.32,485.56c3.06,6.75-1.4,13.52-6,13.52s-9.82-7.38-5.76-13.52c4.94-7.47,4-9.06,5.76-13.53C192.23,467.14,191.44,474.76,196.32,485.56Z" transform="translate(-51.55 -68.1)"/>
</svg>
